<svg id="Layer_1" data-name="Layer 1" xmlns="http://www.w3.org/2000/svg" viewBox="0 0 119.9 41.26"><defs><style>.cls-1{fill:#fffeff;}.cls-2{fill:#ee3542;}.cls-3{fill:#7b1421;}.cls-4{fill:none;stroke:#ee3542;stroke-miterlimit:10;stroke-width:0.63px;}</style></defs><path class="cls-1" d="M542.5,701.08V699h-3.79v2.07h-7.44v3.8h2.15V723.1h3.76V704.88h7.55V717.8c0,1-.55,1.57-1.65,1.57h-.64v3.73h1.8a4.06,4.06,0,0,0,3.24-1.26,4.42,4.42,0,0,0,1-3.1V701.08Z" transform="translate(-531.27 -699)"/><path class="cls-1" d="M577.69,710.24A7.62,7.62,0,0,0,571.9,708c-.57,0-1.76-.05-3.58,0v-3.07h10.53v-3.8H562.42v3.8h2.11V708h-2.08v3.83h2.08l0,11.29h3.89V711.81q1.25,0,3.15,0,4.55,0,4.55,5.39v5.9h3.74v-6.18C579.83,714,579.11,711.79,577.69,710.24Z" transform="translate(-531.27 -699)"/><path class="cls-1" d="M608.93,701.08V699h-3.79v2.07h-7.43v3.8h2.14V723.1h3.76V704.88h7.55V717.8c0,1-.55,1.57-1.65,1.57h-.64v3.73h1.8a4.1,4.1,0,0,0,3.25-1.26,4.47,4.47,0,0,0,1-3.1V701.08Z" transform="translate(-531.27 -699)"/><path class="cls-1" d="M632,704.88v-3.8h-4.92V699h-3.7v2.07h-6.46v10.35q0,11.67,11.17,11.67H632V710.84h-3.76v8.53a24.87,24.87,0,0,1-3-.41,5.49,5.49,0,0,1-3-2.23,10.85,10.85,0,0,1-1.41-6.05v-5.8Z" transform="translate(-531.27 -699)"/><path class="cls-1" d="M644.54,701.08V699H640.8l0,2.07h-6.49v22h16.89v-22Zm2.78,18.29h-9.24V704.88h9.24Z" transform="translate(-531.27 -699)"/><path class="cls-2" d="M595.68,703.46l-13.26.33a5.63,5.63,0,0,1,4.78-2.59h3.93A5.63,5.63,0,0,1,595.68,703.46Z" transform="translate(-531.27 -699)"/><path class="cls-2" d="M596.69,706.17l-15.07.43v0a5.14,5.14,0,0,1,.56-2.34l13.8-.31A5.17,5.17,0,0,1,596.69,706.17Z" transform="translate(-531.27 -699)"/><polygon class="cls-2" points="65.44 7.7 65.44 9.88 50.34 10.04 50.34 8.08 65.44 7.7"/><polygon class="cls-2" points="65.44 10.69 65.44 13.85 50.34 13.06 50.34 11.09 65.44 10.69"/><path class="cls-2" d="M582.51,720.64l14.15-2.19a5.5,5.5,0,0,1-5.53,4.65H587.2A5.62,5.62,0,0,1,582.51,720.64Z" transform="translate(-531.27 -699)"/><path class="cls-2" d="M596.71,714.08v3l-15,1.7a5.07,5.07,0,0,1-.1-1v-4.9Z" transform="translate(-531.27 -699)"/><rect class="cls-3" x="55.17" width="5.44" height="1.59"/><polygon class="cls-1" points="26.41 20.36 28.76 20.36 28.76 24.09 20.41 24.09 20.41 20.36 22.61 20.36 22.61 5.87 20.41 5.87 20.41 2.08 28.76 2.08 28.76 5.87 26.41 5.87 26.41 20.36"/><path class="cls-1" d="M567.88,730.81q-3.4.13-3.41,3.25a9.29,9.29,0,0,0,1.24,4l-2.57,1a12.2,12.2,0,0,1-.89-4.23c0-3.29,1.78-5.13,5.35-5.5Z" transform="translate(-531.27 -699)"/><path class="cls-1" d="M580.31,738.34l-1.61.67a10.08,10.08,0,0,1-.94-2,2.61,2.61,0,0,1-2.87,2,2.73,2.73,0,0,1-2.22-1.08,3.65,3.65,0,0,1-.79-2.35,5.42,5.42,0,0,1,1.37-3.53,7.17,7.17,0,0,1,3.85-2.33l.81,1.12a5.58,5.58,0,0,0-2.74,1.68,3.72,3.72,0,0,0-1.09,2.46q0,1.62,1.47,1.62a1.44,1.44,0,0,0,1.28-.73,2.66,2.66,0,0,0,.37-1.4,13.47,13.47,0,0,0-.16-1.95l2.19-.55a29.06,29.06,0,0,0,.13,3.28A8.17,8.17,0,0,0,580.31,738.34Z" transform="translate(-531.27 -699)"/><path class="cls-1" d="M603.05,732.78a9.57,9.57,0,0,1-.77,3.65,8.12,8.12,0,0,1-2.17,3.09l-1.2-1.53a7.29,7.29,0,0,0,2.05-4.66,2.75,2.75,0,0,0-.31-1.33,1.2,1.2,0,0,0-1.1-.75c-1.22,0-1.84,1.89-1.84,5.67,0,.34,0,.73,0,1.16s0,.68,0,.73h-1.64a51.59,51.59,0,0,1-.39-6.16,24.49,24.49,0,0,1,.33-4.41,11.88,11.88,0,0,1,1.57-4.17l2,.75a15.8,15.8,0,0,0-1.8,6,4.69,4.69,0,0,1,1-.89,2.84,2.84,0,0,1,1.51-.37,2.52,2.52,0,0,1,2.14.91A3.6,3.6,0,0,1,603.05,732.78Z" transform="translate(-531.27 -699)"/><path class="cls-1" d="M611.35,730.34a9.72,9.72,0,0,0-.76,4.19,14.6,14.6,0,0,0,.52,4l-1.58.47a11.41,11.41,0,0,1-1.34-5.61,9.4,9.4,0,0,1,.68-3.7Zm.4-3.12a1.09,1.09,0,0,1-.37.84,1.29,1.29,0,0,1-1.77,0,1.13,1.13,0,0,1,0-1.67,1.29,1.29,0,0,1,1.77,0A1.09,1.09,0,0,1,611.75,727.22Z" transform="translate(-531.27 -699)"/><path class="cls-1" d="M619.8,730.34a9.72,9.72,0,0,0-.76,4.19,14.6,14.6,0,0,0,.52,4L618,739a11.41,11.41,0,0,1-1.34-5.61,9.4,9.4,0,0,1,.68-3.7Zm.4-3.12a1.12,1.12,0,0,1-.36.84,1.28,1.28,0,0,1-.89.35,1.25,1.25,0,0,1-.89-.35,1.13,1.13,0,0,1,0-1.67A1.21,1.21,0,0,1,619,726a1.24,1.24,0,0,1,.89.35A1.11,1.11,0,0,1,620.2,727.22Z" transform="translate(-531.27 -699)"/><path class="cls-4" d="M587.1,729.49a3.29,3.29,0,0,0,1.69-1.45,3.4,3.4,0,0,0,.09-2.93" transform="translate(-531.27 -699)"/><path class="cls-2" d="M590,734.65c-.69-.32-1.4-.64-2.11-1s-1.14-.8-1.14-1.28a1.71,1.71,0,0,1,.49-1l-2-1.44c-.13.16-.23.28-.3.38a3.72,3.72,0,0,0-.83,2.13,2,2,0,0,0,1.17,1.88l2.15.78q1.17.45,1.17,1.29c0,.44-.7,1.2-2.11,2.28l2.05,1.63q1.24-1.37,1.59-1.83a3.86,3.86,0,0,0,1-2A2,2,0,0,0,590,734.65Z" transform="translate(-531.27 -699)"/><path class="cls-2" d="M588.6,730.14l-2-1.64c-.36.38-.67.71-.91,1l2,1.46A10.1,10.1,0,0,1,588.6,730.14Z" transform="translate(-531.27 -699)"/><rect class="cls-3" x="55.62" y="24.67" width="4.54" height="2.13"/></svg>